<svg xmlns="http://www.w3.org/2000/svg" width="85.333" height="85.333" version="1.0" viewBox="0 0 64 64"><path d="M21.5 22.2C11.1 30.1 2.4 37 2.3 37.6c-.5 1.4 12.1 18 14.2 18.8 2.5.9 41.8.7 43.3-.3.8-.5 1.2-1.7 1-2.7-.3-1.7-1.6-2-10.6-2.4l-10.3-.5L51 42.2c6-4.5 11-8.7 11-9.2 0-2.1-18.2-25-19.9-25-.9 0-10.2 6.4-20.6 14.2zm27 .5c3.6 4.7 6.5 8.9 6.5 9.2-.1.3-3.9 3.5-8.6 7-6.6 5-8.9 6.3-10.1 5.5-.9-.5-4.4-4.4-7.9-8.5l-6.2-7.5 9.1-7.1c5.1-3.9 9.5-7.2 9.9-7.2.4-.1 3.7 3.8 7.3 8.6zM25.3 40.5c3.7 4.7 6.5 9 6.2 9.5-.3.6-3.5 1-7 1h-6.4l-4.7-6.2-4.8-6.1 4-3.3c2.1-1.9 4.4-3.4 4.9-3.4.6 0 4.1 3.9 7.8 8.5z"/></svg>