<svg xmlns="http://www.w3.org/2000/svg" width="85.333" height="85.333" version="1.0" viewBox="0 0 64 64">
  <path 
    d="M16 32v29h2.5c2 0 2.5-.5 2.5-2.5 0-2.1.5-2.5 3-2.5s3-.4 3-2.5c0-2 .5-2.5 2.5-2.5 2.1 0 2.5-.5 2.5-3s.4-3 2.5-3c2 0 2.5-.5 2.5-2.5 0-2.1.5-2.5 3-2.5s3-.4 3-2.5c0-2 .5-2.5 2.5-2.5 2.1 0 2.5-.5 2.5-3s-.4-3-2.5-3c-2 0-2.5-.5-2.5-2.5 0-2.1-.5-2.5-3-2.5s-3-.4-3-2.5c0-2-.5-2.5-2.5-2.5-2.1 0-2.5-.5-2.5-3s-.4-3-2.5-3c-2 0-2.5-.5-2.5-2.5 0-2.1-.5-2.5-3-2.5s-3-.4-3-2.5c0-2-.5-2.5-2.5-2.5H16v29z" 
    fill="white"
  />
</svg>